<?xml version="1.0" standalone="no"?><!DOCTYPE svg PUBLIC "-//W3C//DTD SVG 1.1//EN" "http://www.w3.org/Graphics/SVG/1.1/DTD/svg11.dtd"><svg class="icon" width="200px" height="200.00px" viewBox="0 0 1024 1024" version="1.1" xmlns="http://www.w3.org/2000/svg"><path fill="#408cce" d="M635.467009 215.96468c32.661887-37.734416 54.781674-90.150206 48.76054-142.408407-47.154973 1.812275-104.399745 29.998221-138.073682 67.589374-30.416753 33.401738-56.783261 86.795808-49.535183 138.03275C549.130665 283.063891 602.733491 253.736958 635.467009 215.96468zM767.774361 532.273742c-1.037632-112.848161 96.931656-167.215396 101.412714-169.926134-55.223742-76.480882-140.925636-87.11508-171.495886-88.280626-72.919776-6.922666-142.556786 40.935318-179.475628 40.935318-37.044708 0-94.056166-39.790238-154.762783-38.664601-79.543637 1.150196-152.886039 44.055378-193.921641 111.802342-82.520435 136.64924-21.005406 338.807473 59.575864 449.417663 39.405475 54.224995 86.311785 115.056456 148.066267 112.824625 59.436694-2.108011 81.765235-36.583197 153.536862-36.583197 71.723531-0.104377 91.961458 36.564777 154.641009 35.43914 63.881936-1.297552 104.441701-55.350632 143.620002-109.694331 45.034682-62.736856 63.679321-123.673717 64.638159-126.785591C892.305609 712.091154 769.196757 667.289786 767.774361 532.273742z" /></svg>